<?xml version="1.0" standalone="no"?><!DOCTYPE svg PUBLIC "-//W3C//DTD SVG 1.1//EN" "http://www.w3.org/Graphics/SVG/1.1/DTD/svg11.dtd"><svg t="1722082161935" class="icon" viewBox="0 0 1024 1024" version="1.1" xmlns="http://www.w3.org/2000/svg" p-id="9239" data-spm-anchor-id="a313x.search_index.0.i2.58113a81qfukZb" xmlns:xlink="http://www.w3.org/1999/xlink" width="256" height="256"><path d="M512 1024A512 512 0 1 1 1024 512 512 512 0 0 1 512 1024z m-33.723733-646.417067a117.5552 117.5552 0 0 1 63.6928-15.1552 200.021333 200.021333 0 0 1 119.125333 36.181334v-105.813334a335.394133 335.394133 0 0 0-124.381867-20.138666 229.376 229.376 0 0 0-142.199466 40.96 135.441067 135.441067 0 0 0-53.725867 114.4832 166.5024 166.5024 0 0 0 118.510933 152.917333 328.977067 328.977067 0 0 1 93.115734 51.950933 59.1872 59.1872 0 0 1 17.6128 40.618667 48.264533 48.264533 0 0 1-22.186667 40.96 114.005333 114.005333 0 0 1-66.286933 15.906133 206.301867 206.301867 0 0 1-138.786134-52.906666v112.981333a303.854933 303.854933 0 0 0 142.336 29.354667 235.178667 235.178667 0 0 0 146.6368-40.004267 137.8304 137.8304 0 0 0 51.6096-116.053333 144.5888 144.5888 0 0 0-28.2624-89.429334A264.055467 264.055467 0 0 0 551.389867 503.125333a302.2848 302.2848 0 0 1-80.622934-46.626133 53.589333 53.589333 0 0 1-16.315733-37.6832 46.2848 46.2848 0 0 1 23.825067-41.233067z" fill="#fdad0f" p-id="9240"></path></svg>