<?xml version="1.0" standalone="no"?><!DOCTYPE svg PUBLIC "-//W3C//DTD SVG 1.1//EN" "http://www.w3.org/Graphics/SVG/1.1/DTD/svg11.dtd"><svg t="1722082338268" class="icon" viewBox="0 0 1024 1024" version="1.1" xmlns="http://www.w3.org/2000/svg" p-id="9725" xmlns:xlink="http://www.w3.org/1999/xlink" width="256" height="256"><path d="M118.153846 39.384615h787.692308a78.769231 78.769231 0 0 1 78.769231 78.769231v787.692308a78.769231 78.769231 0 0 1-78.769231 78.769231H118.153846a78.769231 78.769231 0 0 1-78.769231-78.769231v-787.692308a78.769231 78.769231 0 0 1 78.769231-78.769231z m493.095385 310.35077l72.467692-76.406154a198.104615 198.104615 0 0 0-74.436923-44.110769 282.387692 282.387692 0 0 0-161.083077-3.15077 202.830769 202.830769 0 0 0-65.772308 31.113846c-19.140923 13.942154-34.658462 31.350154-46.473846 52.381539-11.815385 21.031385-17.723077 45.922462-17.723077 74.830769 0 33.083077 6.537846 59.470769 19.692308 79.163077 13.154462 19.692308 29.380923 35.446154 48.836923 47.261539 19.456 11.815385 40.723692 21.110154 63.803077 27.963076 23.079385 6.852923 44.347077 14.020923 63.803077 21.661539 19.456 7.640615 35.682462 16.935385 48.836923 27.963077 13.154462 11.027692 19.692308 26.781538 19.692308 47.261538 0 12.603077-2.914462 23.788308-8.664616 33.476923a74.043077 74.043077 0 0 1-22.843077 24.024616c-9.452308 6.301538-19.928615 11.027692-31.507692 14.178461a133.907692 133.907692 0 0 1-97.28-10.633846A125.164308 125.164308 0 0 1 374.941538 653.784615l-74.830769 72.467693c23.079385 27.332923 50.648615 46.710154 82.707693 58.28923 32.059077 11.579077 65.378462 17.329231 100.036923 17.329231 27.332923 0 53.326769-3.702154 77.981538-11.027692 24.654769-7.325538 46.316308-18.353231 64.984615-33.083077 18.668308-14.729846 33.476923-33.240615 44.504616-55.532308 11.027692-22.291692 16.541538-48.443077 16.541538-78.375384 0-33.083077-6.537846-59.628308-19.692307-79.556923a157.774769 157.774769 0 0 0-48.836923-48.049231 259.387077 259.387077 0 0 0-63.803077-28.356923 907.027692 907.027692 0 0 1-63.803077-21.267693 193.614769 193.614769 0 0 1-48.836923-25.993846c-13.154462-10.003692-19.692308-24.418462-19.692308-43.323077 0-12.603077 2.599385-23.473231 7.876923-32.68923a65.851077 65.851077 0 0 1 20.873846-22.449231c8.664615-5.750154 18.353231-10.003692 29.144616-12.603077a147.140923 147.140923 0 0 1 89.00923 6.695385c17.565538 7.089231 31.665231 18.274462 42.141539 33.476923z" fill="#fdad0f" p-id="9726" data-spm-anchor-id="a313x.search_index.0.i6.58113a81qfukZb" class="selected"></path></svg>